<svg xmlns="http://www.w3.org/2000/svg" viewBox="0 0 100 100" role="img" aria-labelledby="title desc">
  <title id="title">Replay skill icon</title>
  <desc id="desc">A replay loop around a GET request card.</desc>
  <path d="M73 34a30 30 0 1 0 4 30" fill="none" stroke="#22c55e" stroke-width="8" stroke-linecap="round"/>
  <path d="M73 34h-16" fill="none" stroke="#22c55e" stroke-width="8" stroke-linecap="round"/>
  <path d="M73 34v-16" fill="none" stroke="#22c55e" stroke-width="8" stroke-linecap="round"/>
  <rect x="25" y="39" width="50" height="26" rx="7" fill="#dcfce7"/>
  <g fill="#16a34a">
    <path transform="translate(31.5 58.5)" d="M 7.304688 -4.738281 L 7.304688 -6.90625 L 12.910156 -6.90625 L 12.910156 -1.773438 C 12.367188 -1.246094 11.578125 -0.785156 10.542969 -0.382812 C 9.507812 0.0195312 8.460938 0.21875 7.398438 0.21875 C 6.050781 0.21875 4.878906 -0.0625 3.875 -0.628906 C 2.875 -1.195312 2.121094 -2.003906 1.617188 -3.054688 C 1.113281 -4.105469 0.859375 -5.25 0.859375 -6.484375 C 0.859375 -7.828125 1.140625 -9.019531 1.703125 -10.0625 C 2.265625 -11.105469 3.089844 -11.90625 4.175781 -12.460938 C 5 -12.890625 6.03125 -13.105469 7.257812 -13.105469 C 8.859375 -13.105469 10.109375 -12.769531 11.007812 -12.097656 C 11.90625 -11.425781 12.484375 -10.5 12.742188 -9.316406 L 10.160156 -8.832031 C 9.976562 -9.464844 9.636719 -9.964844 9.136719 -10.332031 C 8.636719 -10.699219 8.007812 -10.882812 7.257812 -10.882812 C 6.121094 -10.882812 5.21875 -10.519531 4.546875 -9.800781 C 3.875 -9.078125 3.542969 -8.007812 3.542969 -6.59375 C 3.542969 -5.0625 3.882812 -3.914062 4.5625 -3.152344 C 5.242188 -2.386719 6.132812 -2.003906 7.234375 -2.003906 C 7.777344 -2.003906 8.324219 -2.109375 8.871094 -2.324219 C 9.421875 -2.539062 9.890625 -2.796875 10.28125 -3.101562 L 10.28125 -4.738281 Z M 7.304688 -4.738281"/>
    <path transform="translate(45.5 58.5)" d="M 1.308594 0 L 1.308594 -12.882812 L 10.863281 -12.882812 L 10.863281 -10.703125 L 3.910156 -10.703125 L 3.910156 -7.847656 L 10.378906 -7.847656 L 10.378906 -5.679688 L 3.910156 -5.679688 L 3.910156 -2.171875 L 11.109375 -2.171875 L 11.109375 0 Z M 1.308594 0"/>
    <path transform="translate(57.5 58.5)" d="M 4.210938 0 L 4.210938 -10.703125 L 0.386719 -10.703125 L 0.386719 -12.882812 L 10.625 -12.882812 L 10.625 -10.703125 L 6.8125 -10.703125 L 6.8125 0 Z M 4.210938 0"/>
  </g>
</svg>
